/* XPM */ 
static const unsigned char * restarbot8_xpm[] = {
"48 48 4 1",
" 	c None",
"!	c black",
"#	c white",
"$	c #686868",
"!!!!!!!!!!!!!!!!!!!!!!!!!!!!!!!!!!!!!!!!!!!!!!!!",
"!!!!!!!!!!!!!!!!!!!!!!!!!!!!!!!!!!!!!!!!!!!!!!!!",
"!!!!!!!!!!!!!!!!!!!!!!!!!!!!!!!!!!!!!!!!!!!!!!!!",
"!!!!!!!!!!!!!!!!!!!!!!!!!!!!!!!!!!!!!!!!!!!!!!!!",
"!!!!!!!!!!####!!!!!!!!!!!!!!!!!!!!!!!!!!!!!!!!!!",
"!!!!!!!!!######!!!!!!!!!!!!!!!!!!!!!!!!!!!!!!!!!",
"!!!!!!!!!########!!!!!!!!!!!!!!!!!!!!!!!!!!!!!!!",
"!!!!!!!!!#########!!!!!!!!!!!!!!!!!!!!!!!!!!!!!!",
"!!!!!!!!!##########!!!!!!!!!!!!!!!!!!!!!!!!!!!!!",
"!!!!!!!!!!###########!!!!!!!!!!!!!!!!!!!!!!!!!!!",
"!!!!!!!!!!!###########!!!!!!!!!!!!!!!!!!!!!!!!!!",
"!!!!!!!!!!!!!##########!!!!!!!!!!!!!!!!!!!!!!!!!",
"!!!!!!!!!!!!!!##########!!!!!!!!!!!!!!!!!!!!!!!!",
"!!!!!!!!!!!!!!!###########!!!!!!!!!!!!!!!!!!!!!!",
"!!!!$$$$!!!!!!!!!##########!!!!!!!!!!!!!!!!!!!!!",
"!!!$$$$$$!!!!!!!!!##########!!!!!!!!!!!!!!!!!!!!",
"!!!$$$$$$$!!!!!!!!!###########!!!!!!!!!!!!!!!!!!",
"!!!$$$$$$$$$!!!!!!!!###########!!!!!!!!!!!!!!!!!",
"!!!$$$$$$$$$$!!!!!!!!!##########!!!!!!!!!!!!!!!!",
"!!!!$$$$$$$$$$!!!!!!!!!###########!!!!!!!!!!!!!!",
"!!!!!$$$$$$$$$$$!!!!!!!!###########!!!!!!!!!!!!!",
"!!!!!!$$$$$$$$$$$!!!!!!!!!##########!!!!!!!!!!!!",
"!!!!!!!!$$$$$$$$$$!!!!!!!!!##########!!!!!!!!!!!",
"!!!!!!!!!$$$$$$$$$!!!!!!!!!!###########!!!!!!!!!",
"!!!!!!!!!!$$$$$$$$!!!!!!!!!!!!##########!!!!!!!!",
"!!!!!!!!!!!!$$$$$$!!!!!!!!!!!!!##########!!!!!!!",
"!!!!!!!!!!!!!$$$$!!!!!!!!!!!!!!!###########!!!!!",
"!!!!!!!!!!!!!!!!!!!!!!###!!!!!!!!###########!!!!",
"!!!!!!!!!!!!!!!!!!!!!#####!!!!!!!!!#########!!!!",
"!!!!!!!!!!!!!!!!!!!!#######!!!!!!!!!########!!!!",
"!!!!!!!!!!!!!!!!!!!########!!!!!!!!!!#######!!!!",
"!!!!!!!!!!!!!!!!!!#########!!!!!!!!!!!!####!!!!!",
"!!!!!!!!!!!!!!!!!#########!!!!!!!!!!!!!!!!!!!!!!",
"!!!!!!!!!!!!!!!!#########!!!!!$$$$!!!!!!!!!!!!!!",
"!!!!!!!!!!!!!!!#########!!!!!$$$$$$!!!!!!!!!!!!!",
"!!!!!!!!!!!!!!#########!!!!!!$$$$$$!!!!!!!!!!!!!",
"!!!!!!!!!!!!!#########!!!!!!!$$$$$$!!!!!!!!!!!!!",
"!!!!!!!!!!!!#########!!!!!!!!$$$$$$!!!!!!!!!!!!!",
"!!!!!!!!!!!#########!!!!!!!!!$$$$$$!!!!!!!!!!!!!",
"!!!!!!!!!!#########!!!!!!!!!!$$$$$$!!!!!!!!!!!!!",
"!!!!!!!!!#########!!!!!!!!!!!$$$$$$!!!!!!!!!!!!!",
"!!!!!!!!!########!!!!!!!!!!!!$$$$$$!!!!!!!!!!!!!",
"!!!!!!!!!#######!!!!!!!!!!!!!$$$$$$!!!!!!!!!!!!!",
"!!!!!!!!!######!!!!!!!!!!!!!!$$$$$$!!!!!!!!!!!!!",
"!!!!!!!!!!####!!!!!!!!!!!!!!!!$$$$!!!!!!!!!!!!!!",
"!!!!!!!!!!!!!!!!!!!!!!!!!!!!!!!!!!!!!!!!!!!!!!!!",
"!!!!!!!!!!!!!!!!!!!!!!!!!!!!!!!!!!!!!!!!!!!!!!!!",
"!!!!!!!!!!!!!!!!!!!!!!!!!!!!!!!!!!!!!!!!!!!!!!!!"};