/* XPM */
static char * versionvega_xpm[] = {
"48 48 3 1",
" 	c #000000",
".	c #686868",
"+	c #FFFFFF",
"                                                ",
"                                                ",
"                                                ",
"                                                ",
"          .....         .....          ++++++   ",
"          .....         .....          ++++++   ",
"          .....        ......         +++++++   ",
"         ......        ......         +++++++   ",
"         ......        ......        +++++++    ",
"         ......       .......        +++++++    ",
"         ......       ......        +++++++     ",
"         .....        ......        +++++++     ",
"         .....       .......       +++++++      ",
"        ......       ......        +++++++      ",
"        ......       ......       +++++++       ",
"        ......      .......       +++++++       ",
"        ......      ......       +++++++        ",
"        .....       ......       +++++++        ",
"        .....      .......      +++++++         ",
"       ......      ......       +++++++         ",
"       ......      ......      +++++++          ",
"       ......     .......      +++++++          ",
"       ......     ......      +++++++           ",
"       .....     .......     ++++++++           ",
"       .....     .......     +++++++            ",
"      ......     ......     ++++++++            ",
"      ......    .......     +++++++             ",
"      ......    ......     +++++++              ",
"      ......    ......     +++++++              ",
"      .....    .......    +++++++               ",
"      .....    ......     +++++++               ",
"     ......    ......    +++++++                ",
"     ......   .......    +++++++                ",
"     ......   ......    +++++++                 ",
"     ......   ......    +++++++                 ",
"     .....   .......   +++++++                  ",
"     .....   ......    +++++++                  ",
"    ......   ......   +++++++                   ",
"    ......  .......   +++++++                   ",
"    ......  ......   +++++++                    ",
"    ......  ......   ++++++                     ",
"    .....   ......   ++++++                     ",
"    .....   .....    +++++                      ",
"    .....   .....    +++++                      ",
"                                                ",
"                                                ",
"                                                ",
"                                                "};
